<svg xmlns="http://www.w3.org/2000/svg" viewBox="0 0 660.19 192.48"><defs><style>.cls-1{fill:#002f65;}</style></defs><g id="Layer_2" data-name="Layer 2"><g id="Layer_1-2" data-name="Layer 1"><path class="cls-1" d="M289.3,80.79s-.18,14.82-2.43,40.4c0,0-1,16.81,2.85,23s11.25,2.08,12.3,1.11,1.88-4.22,1.9-13.77-.2-44.76,1.08-54.27.33-28.9-2.32-32.74-5.52-9-7.95-3.51-4.55,17.72-5.28,34.3-.15,5.52-.15,5.52"/><path class="cls-1" d="M297.75,84.55s44,1.53,48.5,9.71c0,0,1.58,1.57-3.66,4.41-4,2.18-7.36,3-3.9,4.91,0,0,5.07,3.17,8.1,2.26s11.41-3.69,12.41-12.46-9.53-17.64-24.64-20.57-21.26-4.16-39.16-2.9-40.22,8.51-46.48,16-.34,13.79.09,14.46,14.19,21.92,45.39,34.38c0,0,30.29,13.46,64.75,4.15S399,108.5,400.35,96s-7.14-45.67-61.65-75.08c0,0-58-32.12-107-16.68,0,0-3-.09-5.9,3.84s-5.47,6.64-4,9.67,8.92,4.55,15.51,2.73c0,0,3.06-1.93-.66-3.28a33.78,33.78,0,0,0-5.73-1.68s-2-.56,0-1.52,24.35-7.33,63.26,3.86,91,44.39,88.5,77.25-54,32.86-54,32.86-48.57.86-76.31-31.12c0,0-3.65-4.13,2-6.48s18-5.52,40.65-5.86,2.77.08,2.77.08"/><path class="cls-1" d="M399.39,50.28s15.45-29.45,44.05-27.47c0,0,12.05.22,11.61,11s-14,23.85-28,28.1-21.08-1.12-28-5.61a14.42,14.42,0,0,1-6.2-16.25c1.26-4.62,10.2-22.08,35.74-23.47,0,0,16-.81,14.69,9.08,0,0-5.82,5.12-16,3.82s-18.22.22-23.33,7.86-1.31,9.65,2.64,12.16,28.42,8.11,38.28-10.7c0,0,3.64-8.69-5.59-7.46S414.73,46.07,410.46,55s-6,11.12-8.51,11.29-4.65-3.76-5.12-5-2-3.69,1.79-9.74.77-1.26.77-1.26"/><path class="cls-1" d="M420.71,110.75s.86,20.64-2.09,22.82-9.47,1-11.17-1.45-2.17-11.25-1.4-25.19,1.55-31.38,4.77-34.05,5-.1,6.35,1.82a14.5,14.5,0,0,1,3,8.52c.25,4.4.53,25.52.53,25.52Z"/><path class="cls-1" d="M477.83,85.27c-12.07.38-34.88,1.61-37.94,3.91,0,0-1.71,1.72.67,2.29s12,2,16.64,2.37,21.61.87,27.41,8.46c0,0,3.41,3.75,3.06,11.92s-1.84,11.13-5.18,13.93-32.61,14.89-50.76-5.51c0,0-8.25-9.8,3.39-16.77,0,0,8.56-4.89,29.47,1.62,0,0,6.35,2.59,6,5s-5.41,4.86-12.46,4.53A24.53,24.53,0,0,1,446,112.86s-6.43-3.31-8.89-.49-1.76,4.33.43,6.15,10.76,2,10.76,2,23.9-.43,28.23-6.72c0,0,3.13-3.43-1.33-6.08s-17.34-4.65-22.24-5.05-22.65-.65-25.16-5.38c0,0-2.35-3.22.55-12.41s24.12-12.51,33.31-13c0,0,24.78-.15,29.15,5,0,0,.6.9-.22,2.75s-1.57,4.42-5.92,5Z"/><path class="cls-1" d="M522,100.19s7.19,12.71,7.81,12.86a1.2,1.2,0,0,0,1.32.21c.7-.34.43-4.32.43-4.32s-1.11-13.58-7.34-37a10.35,10.35,0,0,1-.09-5.55c.84-2.73,3.43-1.39,3.43-1.39S538,70.55,542.61,87.9s.8,32.84-1.35,37.43-7.57,9.46-13.87,6.14-16-24.37-16-24.37-3.66-7.89-4.42-7.8c0,0-.71-1.45-1.47,6.94s-.71,25-4.06,27.49a5.88,5.88,0,0,1-9-1.67c-1.81-3.07-2.5-10.23-1-22.78S496.1,83.54,500,79.5s6.83-1,8,.11c0,0,4.66,4.65,12.68,18.21Z"/><path class="cls-1" d="M573.13,91.18,570.58,99a114.46,114.46,0,0,1,16.83.23,2.45,2.45,0,0,1,2.43,2.7,49,49,0,0,1-.28,5.65s-.19,1.7-2.78,2.14-21,.57-21,.57l-3.33,10s-1.13,2.3,1.28,1.74,22-3.66,24.3-3c2.66.75,5.5,4.61,4.67,7.55-1.2,4.19-20.43,15.18-32.49,14.71,0,0-6.75.48-11.14-8.19s-.9-14.43.19-17.65a45,45,0,0,1,2.18-5.35s-2.81-7.17-.46-9.43c0,0,1.34-1.17,5.18-1.37L561,89.7s-5.55-.17-8.49-3.89-3.18-5.63-.72-6.57,24.72-4.61,40.48-3.59c0,0,5.35-.48,9.8,9,0,0,2,3.76-1.78,4.64s-16.83,2.25-26,1.89Z"/><path class="cls-1" d="M614.58,99.05s-9.29,16.31.09,22.37,23.4-.93,26.63-3.76c3.48-3,11.65-10.85,10.69-21.55,0,0-.58-5.68-6.3.33s-16.88,18.35-24.53,35.34-14.26,32.4-18.39,57.55c0,0-.63,4.33-4.1,2.83s-10-7-10-15.48,4.45-31.48,16.54-54.27c0,0,21.54-31.44,37.22-39.53a9.59,9.59,0,0,1,11.56.34c6.15,4.59,6.23,15.13,6.19,16.15,0,0,0,10.85-5.2,18.82-5.05,7.76-22.35,29.54-42.4,18.76,0,0-16.78-6.54-12.1-29.13,0,0,2.89-17.15,20.68-32.08,0,0,2.06-1.83,3.3-1.3s.58,6.31-.63,8.9S621.71,87,615.76,97Z"/><path class="cls-1" d="M2.22,128.09A4.45,4.45,0,0,1,0,124a4.67,4.67,0,0,1,4.72-4.72,5.48,5.48,0,0,1,2.51.67,26.85,26.85,0,0,0,14.65,4.92c5,0,7.9-2.12,7.9-5.49v-.2c0-4-5.39-5.3-11.37-7.13-7.52-2.12-15.9-5.2-15.9-14.94V97c0-9.64,8-15.52,18.12-15.52a35.34,35.34,0,0,1,16,4.14A4.94,4.94,0,0,1,39.42,90a4.74,4.74,0,0,1-4.82,4.72,4.53,4.53,0,0,1-2.31-.58C28.15,92,23.9,90.69,20.34,90.69c-4.53,0-7.13,2.12-7.13,5.11V96c0,3.67,5.49,5.21,11.46,7.14,7.43,2.31,15.81,5.68,15.81,14.84v.19c0,10.7-8.29,16-18.89,16A34.75,34.75,0,0,1,2.22,128.09Z"/><path class="cls-1" d="M51.48,68.14a5.73,5.73,0,0,1,5.78-5.78,5.88,5.88,0,0,1,5.88,5.78V90.21c3.28-4.82,8-9,15.9-9,11.47,0,18.12,7.71,18.12,19.56V127.9a5.83,5.83,0,0,1-11.66,0V104.28c0-7.9-4-12.43-10.89-12.43-6.75,0-11.47,4.72-11.47,12.63V127.9a5.83,5.83,0,0,1-11.66,0Z"/><path class="cls-1" d="M107.58,108v-.19c0-14.55,11.57-26.6,27.18-26.6s27.09,11.85,27.09,26.41v.19c0,14.46-11.57,26.5-27.28,26.5C119.05,134.35,107.58,122.5,107.58,108Zm42.6,0v-.19c0-9-6.45-16.39-15.61-16.39-9.35,0-15.33,7.33-15.33,16.2v.19c0,8.87,6.46,16.38,15.52,16.38C144.21,124.23,150.18,116.81,150.18,108Z"/><path class="cls-1" d="M172.84,87.61a5.76,5.76,0,0,1,5.79-5.88,5.9,5.9,0,0,1,5.88,5.88v3.18c3.75-5.3,9.06-9.54,17.25-9.54,12.05,0,23.71,9.54,23.71,26.41v.19c0,16.87-11.57,26.41-23.71,26.41-8.39,0-13.69-4.24-17.25-9v18a5.84,5.84,0,0,1-11.67,0Zm40.77,20.24v-.19c0-9.84-6.65-16.29-14.55-16.29s-14.84,6.55-14.84,16.29v.19c0,9.83,6.94,16.29,14.84,16.29S213.61,117.87,213.61,107.85Z"/></g></g></svg>